<svg xmlns="http://www.w3.org/2000/svg" xmlns:xlink="http://www.w3.org/1999/xlink" viewBox="0 0 185.76 67.08"><defs><style>.cls-1{fill:#fff;}.cls-2{fill:url(#Degradado_sin_nombre_26);}</style><linearGradient id="Degradado_sin_nombre_26" x1="155.1" y1="-23.3" x2="154.82" y2="60.46" gradientUnits="userSpaceOnUse"><stop offset="0.1" stop-color="#fc2797"/><stop offset="0.26" stop-color="#fc2d8f"/><stop offset="0.5" stop-color="#fd3c7a"/><stop offset="0.8" stop-color="#fe5558"/><stop offset="1" stop-color="#ff6a3c"/></linearGradient></defs><g id="Capa_2" data-name="Capa 2"><g id="Arte"><path class="cls-1" d="M37.35,45.57A26.29,26.29,0,0,1,36,54.7,16,16,0,0,1,31.9,61a19.25,19.25,0,0,1-6.61,3.94,42.51,42.51,0,0,1-9,2.12,1.84,1.84,0,0,1-1.14,0,1.47,1.47,0,0,1-.45-1l-1-7.27c-.1-.56-.06-.9.12-1a2.68,2.68,0,0,1,.87-.34c1.41-.25,2.81-.56,4.2-.91A14.1,14.1,0,0,0,22.62,55a8.12,8.12,0,0,0,2.65-2.42,6.3,6.3,0,0,0,1-3.67l-.05-.46a24.35,24.35,0,0,1-4.28.87,41.46,41.46,0,0,1-4.57.26,19.48,19.48,0,0,1-7.83-1.44,14.11,14.11,0,0,1-5.4-4A17.24,17.24,0,0,1,1,37.83a29.92,29.92,0,0,1-1-8.1,27.37,27.37,0,0,1,1.17-8.11A18.24,18.24,0,0,1,4.76,15a16.54,16.54,0,0,1,6.17-4.39,22.64,22.64,0,0,1,9-1.6,54.51,54.51,0,0,1,8.28.65,29,29,0,0,1,7.67,2.23,3.13,3.13,0,0,1,1.25,1,2.89,2.89,0,0,1,.26,1.32Zm-25.91-16q0,5.85,2.24,8.29a7.94,7.94,0,0,0,6.17,2.43c.61,0,1.54-.06,2.8-.19a17,17,0,0,0,3.72-.8V19.2a19.12,19.12,0,0,0-3.15-.65,25.62,25.62,0,0,0-2.69-.19,11.26,11.26,0,0,0-3.75.61,7.16,7.16,0,0,0-2.88,1.9,9,9,0,0,0-1.82,3.42A18.36,18.36,0,0,0,11.44,29.54Z"/><path class="cls-1" d="M61.69,40.84c.51,0,1.23,0,2.17-.07s1.94-.15,3-.31V10.61a1.74,1.74,0,0,1,.27-1.13c.17-.2.61-.31,1.32-.31h7.8c1.07,0,1.6.48,1.6,1.44V43a7.25,7.25,0,0,1-1,4.1,5.76,5.76,0,0,1-3.67,2.12c-.61.1-1.37.2-2.27.3s-1.89.19-2.92.27-2.06.12-3.07.15l-2.65,0A35,35,0,0,1,53,48.87a14,14,0,0,1-6.22-3.41,13.39,13.39,0,0,1-3.44-6.09,33.87,33.87,0,0,1-1.06-9.13V10.61a1.75,1.75,0,0,1,.26-1.13c.17-.2.61-.31,1.32-.31h7.82c1.06,0,1.58.48,1.58,1.44V30.92a26.32,26.32,0,0,0,.31,4.35,7.08,7.08,0,0,0,1.22,3.11,5.37,5.37,0,0,0,2.59,1.86A13.06,13.06,0,0,0,61.69,40.84Z"/><path class="cls-1" d="M118.28,44.26a4.51,4.51,0,0,1-.27,1.66,2.82,2.82,0,0,1-1.32,1.29A21.51,21.51,0,0,1,113,48.58a37,37,0,0,1-4.09.83c-1.38.2-2.78.35-4.19.45s-2.75.16-4,.16a30.64,30.64,0,0,1-8.5-1,14.66,14.66,0,0,1-5.41-2.69,9.26,9.26,0,0,1-2.87-4A15.36,15.36,0,0,1,84,32a11.61,11.61,0,0,1,3-4.28,13.7,13.7,0,0,1,5-2.85,22,22,0,0,1,7.08-1h8.34V22.59a9.2,9.2,0,0,0-.23-2.05,3.48,3.48,0,0,0-1-1.7,5.37,5.37,0,0,0-2-1.18,10.58,10.58,0,0,0-3.41-.45c-.75,0-1.61,0-2.57.11s-1.92.18-2.88.31-1.89.28-2.8.45-1.72.37-2.43.57a2,2,0,0,1-1.36,0,1.38,1.38,0,0,1-.53-1L87,12.36a1.62,1.62,0,0,1,0-1.17,1.4,1.4,0,0,1,.79-.57A36.36,36.36,0,0,1,94.9,8.88a52.33,52.33,0,0,1,7.47-.53q8.23,0,12.07,3.52t3.84,10.42Zm-11-13.11h-6A18.63,18.63,0,0,0,99,31.3,6,6,0,0,0,96.8,32a4.83,4.83,0,0,0-1.71,1.63,5.34,5.34,0,0,0-.68,2.88,3.94,3.94,0,0,0,1.78,3.71A9.35,9.35,0,0,0,101,41.3l1.21,0c.51,0,1.05-.08,1.63-.16s1.18-.17,1.78-.3a9.63,9.63,0,0,0,1.67-.49Z"/><path class="cls-2" d="M185.76,22.47V39A24.44,24.44,0,0,1,161.4,61.45H148.51A24.44,24.44,0,0,1,124.08,37V24.44A24.44,24.44,0,0,1,148.51,0H161.4A24.44,24.44,0,0,1,185.76,22.47Z"/><path class="cls-1" d="M154.4,18.3c-.51,0-1.23,0-2.16,0a18.51,18.51,0,0,0-3,.34V48.6a1.58,1.58,0,0,1-.26,1.1,2.08,2.08,0,0,1-1.33.27h-7.8a2.1,2.1,0,0,1-1.21-.27c-.26-.17-.38-.54-.38-1.1V16.1a7.67,7.67,0,0,1,.91-4.05c.6-1,1.86-1.68,3.78-2.08a18.39,18.39,0,0,1,2.15-.27l3-.23c1-.07,2.1-.14,3.13-.19s1.93-.07,2.69-.07a34.65,34.65,0,0,1,9.15,1.06,15.29,15.29,0,0,1,6.38,3.37,14.06,14.06,0,0,1,3.79,6.06,29.2,29.2,0,0,1,1.24,9.13V48.6a1.64,1.64,0,0,1-.26,1.1,2,2,0,0,1-1.32.27h-7.82a2.15,2.15,0,0,1-1.21-.27c-.25-.17-.37-.54-.37-1.1V28.15a19.38,19.38,0,0,0-.42-4.32,7.41,7.41,0,0,0-1.44-3.07,6,6,0,0,0-2.8-1.85A13.77,13.77,0,0,0,154.4,18.3Z"/></g></g></svg>